<?xml version="1.0" encoding="UTF-8"?>
<svg id="Capa_1" data-name="Capa 1" xmlns="http://www.w3.org/2000/svg" version="1.1" viewBox="0 0 443.1 450.7">
  <defs>
    <style>
      .cls-1 {
        fill: #1f3c73;
      }

      .cls-1, .cls-2, .cls-3 {
        stroke-width: 0px;
      }

      .cls-2 {
        fill: #509934;
      }

      .cls-3 {
        fill: #fff;
      }
    </style>
  </defs>
  <g id="Logo_CMYK_Borde" data-name="Logo CMYK + Borde">
    <path class="cls-3" d="M34,442.1c1.1.1,2.2.2,3.3.2h370.4c4.5,0,8.7-.9,12.6-2.5,1.9-.8,3.8-1.8,5.5-3,3.4-2.3,6.4-5.3,8.7-8.7,3.5-5.2,5.5-11.4,5.5-18.1V149.8s0,0,0,0v-23s0,0,0,0V39.6c0-6.7-2-12.9-5.5-18.1-2.3-3.4-5.3-6.4-8.7-8.7s-3.6-2.2-5.5-3c-3.9-1.6-8.1-2.5-12.6-2.5H37.3c-1.1,0-2.2,0-3.3.2-16.3,1.7-29,15.4-29,32.1v86.8s0,0,0,0v23.1s0,0,0,0v260.5c0,16.7,12.7,30.5,29,32.2Z"/>
    <g id="Cuatricromía">
      <g id="Verdes">
        <path class="cls-2" d="M180.3,98.4L9.6,149.5v260.5c0,15.2,12.4,27.6,27.6,27.6h370.4c15.2,0,27.6-12.4,27.6-27.6V149.8l-255-51.4ZM372.3,375.5c-3.3,1.5-6.7,2.1-10.1,2.1-9.5,0-18.5-5.5-22.6-14.7l-44.2-99.2-43.4,99c-3.9,9-12.8,14.8-22.7,14.8H85.2c-8.1,0-15.7-4-20.3-10.7-4.6-6.7-5.7-15.2-2.8-22.8l57.2-152.2c3.6-9.7,12.9-16.1,23.2-16.1h113.4l-22.1,49.5h-74.2l-38.6,102.7h92.2l59.4-135.5c3.9-9,12.8-14.8,22.6-14.8h0c9.8,0,18.7,5.8,22.6,14.7l67,150.3c5.6,12.5,0,27.1-12.5,32.7Z"/>
      </g>
      <g id="Azules">
        <path class="cls-1" d="M179.1,60.1l256.2,66.7V39.6c0-15.2-12.4-27.6-27.6-27.6H37.3c-15.2,0-27.6,12.4-27.6,27.6v86.8L179.1,60.1Z"/>
      </g>
    </g>
  </g>
</svg>