<?xml version="1.0" encoding="UTF-8"?>
<svg id="Capa_1" data-name="Capa 1" xmlns="http://www.w3.org/2000/svg" version="1.1" viewBox="0 0 2084.6 341.5">
  <defs>
    <style>
      .cls-1 {
        fill: #509a35;
      }

      .cls-1, .cls-2, .cls-3, .cls-4 {
        stroke-width: 0px;
      }

      .cls-2 {
        fill: #1f3b73;
      }

      .cls-5 {
        stroke: #fff;
        stroke-linecap: round;
        stroke-linejoin: round;
        stroke-width: 13.4px;
      }

      .cls-5, .cls-4 {
        fill: #fff;
      }

      .cls-3 {
        fill: #4f9834;
      }
    </style>
  </defs>
  <g>
    <polygon class="cls-5" points="1083.1 304.8 1378.3 304.8 1230.7 313.7 1083.1 304.8"/>
    <g>
      <path id="Blanco" class="cls-5" d="M326.2,25.9H69.3c-10.5,0-19.2,8.5-19.2,18.9v254c0,10.4,8.6,19,19.2,19h256.9c10.5,0,19.2-8.5,19.2-19V44.8c0-10.4-8.6-18.9-19.2-18.9Z"/>
      <path class="cls-5" d="M168.5,85.1l-118.4,35.1v178.6c0,10.4,8.6,19,19.2,19h256.9c10.5,0,19.2-8.5,19.2-19V120.4l-176.8-35.3ZM301.7,275.2c-2.3,1-4.6,1.5-7,1.5-6.6,0-12.8-3.8-15.7-10.1l-30.6-68-30.1,67.9c-2.7,6.2-8.9,10.2-15.7,10.2h-100c-5.6,0-10.9-2.7-14.1-7.3-3.2-4.6-3.9-10.4-2-15.6l39.6-104.4c2.5-6.6,8.9-11,16.1-11h78.7l-15.3,34h-51.5l-26.7,70.4h64l41.2-92.9c2.7-6.2,8.9-10.1,15.7-10.2h0c6.8,0,12.9,3.9,15.7,10.1l46.4,103.1c3.9,8.6,0,18.6-8.7,22.4Z"/>
      <path class="cls-5" d="M167.7,58.9l177.7,45.7v-59.8c0-10.4-8.6-18.9-19.2-18.9H69.3c-10.5,0-19.2,8.5-19.2,18.9v59.6l117.5-45.5Z"/>
    </g>
    <g>
      <g>
        <path class="cls-5" d="M891.3,261c-.5-3.8-.8-13.3-.8-28.1v-21.7c0-7.5-.2-12.7-.7-15.8-.9-5.1-2.5-9.4-4.9-12.8-2.5-3.7-6.4-6.8-11.5-9.1-5-2.3-11.3-3.4-18.9-3.4s-14.4,1.3-20.3,3.9c-6.1,2.7-10.9,6.6-14.1,11.6-3,4.7-5.2,10.8-6.5,18.2l-.8,4.7,23.7,3.9,1-4.8c1.5-7.2,3.6-10.4,5.1-11.7,1.9-1.7,5.3-2.6,10-2.6s8.6,1.2,11,3.7c.9,1,2.5,3.8,2.5,10.9s0,.6,0,1c-4.6,1.5-11.1,2.9-19.3,4.1-5.7.8-9.9,1.7-12.9,2.7-4.2,1.4-8,3.6-11.4,6.3-3.4,2.8-6.2,6.6-8.2,11.1-2,4.5-3,9.4-3,14.7,0,9.1,2.7,16.8,8.2,22.8,5.7,6.4,13.9,9.6,24.2,9.6s11.9-1.3,17.3-3.7c2.7-1.2,5.4-2.9,8.1-4.9.3,1.1.7,2.2,1.2,3.3l1.3,3.2h26l-3.1-6.7c-1.5-3.3-2.5-6.7-3-10.3ZM857.1,254.6c-3,2.1-6.4,3.1-10.3,3.1s-6.6-1.5-7.6-2.6c-1.9-2-2.8-4.6-2.8-7.8s.4-4,1.3-5.7c.8-1.4,1.8-2.5,3.1-3.2,1-.5,3.5-1.5,9.9-2.7,5.9-1,11-2.2,15.2-3.5,0,5.9-.7,10.3-1.8,13.2-1.5,3.9-3.8,6.8-7,9Z"/>
        <path class="cls-5" d="M956,174.8c0,0-.2-.1-.3-.2-4.7-3.1-10-4.6-16-4.6s-15,2.5-21.2,7.5c-6,4.8-10.5,11.6-13.4,20.2-2.8,8.2-4.2,17.5-4.2,27.5s1.6,19.6,4.6,27.7c3.2,8.3,7.8,15,13.8,19.7,6.3,5,13.4,7.6,21,7.6s12.3-2,16.5-4.9v2.7h23.4v-142.4h-24.3v39.2ZM951.8,250.6c-4.5,6.4-8.8,6.4-10.2,6.4s-5.6,0-10.4-6.8c-3.7-5.3-5.6-13.7-5.6-25s1.7-20.4,5.2-25.5c3.9-5.8,7.7-6.5,10.1-6.5s6,0,10.6,6.9c3.6,5.4,5.4,14.3,5.4,26.5s-1.8,19.1-5.3,24.1Z"/>
        <path class="cls-5" d="M1083.7,170c-9.2,0-17,3.7-23.4,11.1-1.5-2.1-3.2-3.9-5.1-5.4-4.8-3.8-10.8-5.7-18-5.7s-12.3,1.8-17.4,5.3c-.3.2-.6.5-1,.7v-3.9h-22.9v105.9h24.3v-54.7c0-8.3.7-14.6,2-18.8,1.1-3.7,2.9-6.4,5.2-8.2,2.2-1.7,4.4-2.5,6.8-2.5s4.6.8,5.8,2.8c1.2,2,2.6,6,2.6,14v67.3h24.3v-60.7c0-8.7,1.5-15.2,4.4-18.7,2.6-3.2,5.6-4.7,9.3-4.7s3.1.5,4.4,1.4c1.4,1.1,2.4,2.6,3,4.5.5,1.7,1.1,5.3,1.1,12.8v65.4h24.3v-70.9c0-12.1-2.4-21-7.3-27.2-5.2-6.5-13-10-22.5-10Z"/>
        <rect class="cls-5" x="1128" y="172.2" width="24.3" height="105.9"/>
        <rect class="cls-5" x="1128" y="135.6" width="24.3" height="28.5"/>
        <path class="cls-5" d="M1236.8,183.9c-2.4-4.2-6.2-7.6-11-10.1-4.8-2.5-10.2-3.8-15.9-3.8-8.3,0-14.7,2.6-19.6,6.2v-4.1h-23v105.9h24.3v-57.4c0-13.8,2.7-19.6,4.9-22,3.1-3.3,6.4-4.8,10.5-4.8s4.1.6,5.8,1.8c1.8,1.3,3,3.1,3.8,5.5.6,2,1.4,5.9,1.4,13.6v63.3h24.3v-64c0-7.8-.3-13.3-.8-16.6-.9-5.2-2.5-9.7-4.7-13.6Z"/>
        <rect class="cls-5" x="1257.4" y="172.2" width="24.3" height="105.9"/>
        <rect class="cls-5" x="1257.4" y="135.6" width="24.3" height="28.5"/>
        <path class="cls-5" d="M1353.1,218.2c-4.1-2.1-10.8-4.7-20.6-7.9-8.2-2.7-10.5-3.6-11.1-3.9-1.4-.7-2.3-1.5-2.9-2.5-.6-.9-.9-2-.9-3.3,0-2.1.8-3.8,2.4-5.4,1.5-1.4,4.7-2.2,9.1-2.2s6.2.8,8,2.6c2,2,3.3,4.9,3.8,8.8l.6,5.2,24-4-.6-4.5c-.9-6.9-2.6-12.3-5.2-16.6-2.7-4.6-7-8.2-12.6-10.9-5.4-2.5-11.8-3.8-18.8-3.8s-9.4.8-13.6,2.3c-4.3,1.5-7.7,3.5-10.3,5.8-3.3,2.9-5.9,6.5-7.8,10.8-1.8,4.2-2.8,8.8-2.8,13.7s1.1,10.4,3.4,14.9c2.4,4.7,5.9,8.5,10.6,11.2,4.2,2.4,11.3,5.2,21.6,8.4,9.4,2.9,11.5,4.3,11.7,4.5.9.7,2.1,2.1,2.1,5.1s-1,5.4-3.1,7.5c-1.9,1.9-5,2.9-9.5,2.9s-7.7-1.1-10.1-3.5c-2.6-2.6-4.2-6.7-4.9-12.1l-.6-5.4-24.1,4.6.6,4.4c1.6,11.2,5.5,19.8,11.7,25.7,6.4,6.2,15.7,9.4,27.4,9.4s13.7-1.6,19.5-4.6c5.8-3.1,10.3-7.6,13.3-13.2,2.9-5.4,4.4-11.3,4.4-17.4s-1.3-11.7-3.8-16.1c-2.6-4.6-6.3-8.1-10.9-10.6Z"/>
        <path class="cls-5" d="M1411.8,253.8c-2.6.4-4,.5-4.8.5s-1,0-1.1-.1c-.1-.1-.3-.3-.5-.8,0-.1-.5-1.6-.5-7.5v-51.3h13.4v-22.4h-13.4v-39.1l-24.3,17.9v21.2h-9.8v22.4h9.8v50.4c0,13.8,1.1,18.4,1.9,20.7,1.4,4,3.9,7.3,7.5,9.7,3.7,2.6,8.6,3.9,14.7,3.9s7.4-.6,11.6-1.6l4.5-1.2-3.2-23.7-5.8,1Z"/>
        <path class="cls-5" d="M1477.7,176.4c-5.6-4.3-11.5-6.4-17.3-6.4s-8.1,1.3-11.5,4v-1.8h-23v105.9h24.3v-55.2c0-6.5.7-12.5,2.1-17.9.8-2.9,2-5.1,3.6-6.6,1.7-1.5,2.9-1.7,3.9-1.7,1.9,0,4.1.8,6.3,2.4l6.6,4.7,7.7-25.4-2.7-2Z"/>
        <path class="cls-5" d="M1557.8,261c-.5-3.8-.8-13.3-.8-28.1v-21.7c0-7.5-.2-12.7-.7-15.8-.9-5.1-2.5-9.4-4.9-12.8-2.5-3.7-6.4-6.8-11.5-9.1-5-2.3-11.3-3.4-18.9-3.4s-14.4,1.3-20.3,3.9c-6.1,2.7-10.9,6.6-14.1,11.6-3,4.7-5.2,10.8-6.5,18.2l-.8,4.7,23.7,3.9,1-4.8c1.5-7.2,3.6-10.4,5.1-11.7,1.9-1.7,5.3-2.6,10-2.6s8.6,1.2,11,3.7c.9,1,2.5,3.8,2.5,10.9s0,.6,0,1c-4.6,1.5-11.1,2.9-19.3,4.1-5.7.8-9.9,1.7-12.9,2.7-4.2,1.4-8,3.6-11.4,6.3-3.4,2.8-6.2,6.6-8.2,11.1-2,4.4-3,9.4-3,14.7,0,9.1,2.7,16.8,8.2,22.8,5.7,6.4,13.9,9.6,24.2,9.6s11.9-1.3,17.3-3.7c2.7-1.2,5.4-2.9,8.1-4.9.3,1.1.7,2.2,1.2,3.3l1.3,3.2h26l-3.1-6.7c-1.5-3.3-2.5-6.7-3-10.3ZM1523.7,254.6c-3,2.1-6.4,3.1-10.3,3.1s-6.6-1.5-7.6-2.6c-1.9-2-2.8-4.6-2.8-7.8s.4-4,1.3-5.7c.8-1.4,1.8-2.5,3.1-3.2,1-.5,3.5-1.5,9.9-2.7,5.9-1,11-2.2,15.2-3.5,0,5.9-.7,10.3-1.8,13.2-1.5,3.9-3.8,6.8-7,9Z"/>
        <path class="cls-5" d="M1623.7,237.5c-.8,7.2-2.7,12.4-5.5,15.6-2.5,2.8-5.3,4-8.8,4s-7.2-.7-11.2-6.5c-3.5-5-5.3-13.7-5.3-25.6s1.8-20.3,5.4-25.3c3.2-4.5,6.9-6.6,11.7-6.6s5.1,1,7.2,3.2c2.5,2.6,4.3,6.7,5.3,12.2l1,5,23.6-4.4-.7-4.5c-1.7-10.7-5.7-19.1-11.8-25.1-6.5-6.3-14.9-9.5-25-9.5s-15.4,2.3-22.1,6.8c-6.6,4.5-11.6,11.2-14.8,19.9-3,8.2-4.5,17.9-4.5,28.7,0,17,3.6,30.3,10.8,39.7,7.6,10,17.9,15,30.5,15s19-3.7,26-11.1c6.6-7,10.7-16.5,12.3-28.5l.6-4.5-24-3.8-.6,5.2Z"/>
        <rect class="cls-5" x="1653.9" y="172.2" width="24.3" height="105.9"/>
        <rect class="cls-5" x="1653.9" y="135.6" width="24.3" height="28.5"/>
        <path class="cls-5" d="M1730.6,170c-11.4,0-21.1,4.2-29,12.4-8.9,9.4-13.4,23.8-13.4,42.7s3.8,30.7,11.2,40.1c7.9,10,18.4,15,31.2,15s15.6-2.3,22.4-6.9c6.6-4.5,11.7-10.7,15.1-18.7,3.3-7.7,4.9-17.8,4.9-30.9s-3.8-29.2-11.3-38.7c-7.9-10-18.4-15.1-31-15.1ZM1748.3,224.6c0,11.6-1.9,20.2-5.7,25.5-4.5,6.2-8.9,7-11.9,7s-7.5-.7-12-6.9c-3.8-5.3-5.7-13.7-5.7-25s1.9-19.7,5.7-25c4.5-6.2,9-6.9,12-6.9s7.4.7,11.9,6.9c3.8,5.3,5.8,13.5,5.8,24.4Z"/>
        <path class="cls-5" d="M1852.7,183.9c-2.5-4.2-6.2-7.6-11-10.1-4.8-2.5-10.2-3.8-15.9-3.8-8.3,0-14.7,2.6-19.6,6.2v-4.1h-23v105.9h24.3v-57.4c0-13.8,2.7-19.6,4.9-22,3.1-3.3,6.4-4.8,10.5-4.8s4.1.6,5.8,1.8c1.8,1.3,3,3.1,3.8,5.4.6,2,1.4,5.9,1.4,13.6v63.3h24.3v-64c0-7.9-.3-13.3-.8-16.6-.9-5.2-2.5-9.7-4.7-13.6Z"/>
        <path class="cls-5" d="M1927.4,241c-1.8,6-4.1,10.3-6.8,12.8-2.4,2.2-5.2,3.2-8.6,3.2s-8.6-2-11.9-6.3c-3.1-3.9-5.1-9.5-5.9-16.6h58.2v-4.8c.2-2,.2-3.5.2-4.5,0-16.8-3.7-30.1-11-39.7-7.7-10.1-17.9-15.3-30.4-15.3s-23.2,5.2-31.1,15.5c-7.4,9.7-11.2,23.3-11.2,40.4s3.7,29.8,11.1,39.2c7.8,10,18.5,15.1,31.9,15.1s19.6-3.2,26.5-9.6c6.6-6.1,11.1-14.6,13.5-25.3l1.1-4.9-24.3-3.7-1.3,4.3ZM1895,211c.9-5,2.6-9.1,5.3-12.3,3.1-3.8,6.7-5.5,11-5.5s7.5.7,11.8,7.1c1.7,2.5,2.9,6.1,3.7,10.8h-31.8Z"/>
        <path class="cls-5" d="M2030.7,228.8c-2.6-4.6-6.3-8.1-10.9-10.6-4.1-2.1-10.8-4.7-20.6-7.9-8.2-2.7-10.5-3.6-11.1-3.9-1.4-.7-2.3-1.5-2.9-2.5-.6-.9-.9-2-.9-3.3,0-2.1.8-3.8,2.4-5.4,1.5-1.4,4.7-2.2,9.1-2.2s6.2.8,8,2.6c2,2,3.3,4.9,3.8,8.8l.6,5.2,24-4-.6-4.5c-.9-6.9-2.6-12.3-5.2-16.6-2.7-4.6-7-8.2-12.6-10.9-5.4-2.5-11.8-3.8-18.8-3.8s-9.4.8-13.6,2.3c-4.3,1.5-7.7,3.5-10.3,5.8-3.3,2.9-5.9,6.5-7.8,10.8-1.8,4.2-2.8,8.8-2.8,13.7s1.1,10.4,3.4,14.9c2.4,4.7,5.9,8.5,10.6,11.2,4.2,2.4,11.3,5.2,21.6,8.4,9.4,2.9,11.5,4.3,11.7,4.5.9.7,2.1,2.1,2.1,5.1s-1,5.4-3.1,7.5c-1.9,1.9-5,2.9-9.5,2.9s-7.7-1.1-10.1-3.5c-2.6-2.6-4.2-6.7-4.9-12.1l-.6-5.4-24.1,4.6.6,4.4c1.6,11.2,5.5,19.8,11.7,25.7,6.4,6.2,15.7,9.4,27.4,9.4s13.7-1.6,19.5-4.6c5.8-3.1,10.3-7.6,13.3-13.2,2.9-5.4,4.4-11.3,4.4-17.4s-1.3-11.7-3.8-16.1Z"/>
      </g>
      <g>
        <path class="cls-5" d="M474.4,237.5c-.8,7.2-2.7,12.4-5.5,15.6-2.5,2.8-5.3,4-8.8,4s-7.2-.7-11.2-6.5c-3.5-5-5.3-13.7-5.3-25.6s1.8-20.3,5.4-25.3c3.2-4.5,6.9-6.6,11.7-6.6s5.1,1,7.2,3.2c2.5,2.6,4.3,6.7,5.3,12.2l1,5,23.6-4.4-.7-4.5c-1.7-10.7-5.7-19.1-11.8-25.1-6.5-6.3-14.9-9.5-25-9.5s-15.4,2.3-22.1,6.8c-6.6,4.5-11.6,11.2-14.8,19.9-3,8.2-4.5,17.9-4.5,28.7,0,17,3.6,30.3,10.8,39.7,7.6,10,17.9,15,30.5,15s19-3.7,26-11.1c6.6-7,10.7-16.5,12.3-28.5l.6-4.5-24-3.8-.6,5.2Z"/>
        <path class="cls-5" d="M580.1,261c-.5-3.8-.8-13.3-.8-28.1v-21.7c0-7.5-.2-12.7-.7-15.8-.9-5.1-2.5-9.4-4.9-12.8-2.5-3.7-6.4-6.8-11.5-9.1-5-2.3-11.3-3.4-18.9-3.4s-14.4,1.3-20.3,3.9c-6.1,2.7-10.9,6.6-14.1,11.6-3,4.7-5.2,10.8-6.5,18.2l-.8,4.7,23.7,3.9,1-4.8c1.5-7.2,3.6-10.4,5.1-11.7,1.9-1.7,5.3-2.6,10-2.6s8.6,1.2,11,3.7c.9,1,2.5,3.8,2.5,10.9s0,.6,0,1c-4.6,1.5-11.1,2.9-19.3,4.1-5.7.8-9.9,1.7-12.9,2.7-4.2,1.4-8,3.6-11.4,6.3-3.4,2.8-6.2,6.6-8.2,11.1-2,4.5-3,9.4-3,14.7,0,9.1,2.7,16.8,8.2,22.8,5.7,6.4,13.9,9.6,24.2,9.6s11.9-1.3,17.3-3.7c2.7-1.2,5.4-2.9,8.1-4.9.3,1.1.7,2.2,1.2,3.3l1.3,3.2h26l-3.1-6.7c-1.5-3.3-2.5-6.7-3-10.3ZM545.9,254.6c-3,2.1-6.4,3.1-10.3,3.1s-6.6-1.5-7.6-2.6c-1.9-2-2.8-4.6-2.8-7.8s.4-4,1.3-5.7c.8-1.4,1.8-2.5,3.1-3.2,1-.5,3.5-1.5,9.9-2.7,5.9-1,11-2.2,15.2-3.5,0,5.9-.7,10.3-1.8,13.2-1.5,3.9-3.8,6.8-7,9Z"/>
        <path class="cls-5" d="M650.9,218.2c-4.1-2.1-10.8-4.7-20.6-7.9-8.2-2.7-10.5-3.6-11.1-3.9-1.4-.7-2.3-1.5-2.9-2.5-.6-.9-.9-2-.9-3.3,0-2.1.8-3.8,2.4-5.4,1.5-1.4,4.7-2.2,9.1-2.2s6.2.8,8,2.6c2,2,3.3,4.9,3.8,8.8l.6,5.2,24-4-.6-4.5c-.9-6.9-2.6-12.3-5.2-16.6-2.7-4.6-7-8.2-12.6-10.9-5.4-2.5-11.8-3.8-18.8-3.8s-9.4.8-13.6,2.3c-4.3,1.5-7.7,3.5-10.3,5.8-3.3,2.9-5.9,6.5-7.8,10.8-1.8,4.2-2.8,8.8-2.8,13.7s1.1,10.4,3.4,14.9c2.4,4.7,5.9,8.5,10.6,11.2,4.2,2.4,11.3,5.2,21.6,8.4,9.4,2.9,11.5,4.3,11.7,4.5.9.7,2.1,2.1,2.1,5.1s-1,5.4-3.1,7.5c-1.9,1.9-5,2.9-9.5,2.9s-7.7-1.1-10.1-3.5c-2.6-2.6-4.2-6.7-4.9-12.1l-.6-5.4-24.1,4.6.6,4.4c1.6,11.2,5.5,19.8,11.7,25.7,6.4,6.2,15.7,9.4,27.4,9.4s13.7-1.6,19.5-4.6c5.8-3.1,10.3-7.6,13.3-13.2,2.9-5.4,4.4-11.3,4.4-17.4s-1.3-11.7-3.8-16.1c-2.6-4.6-6.3-8.1-10.9-10.6Z"/>
        <path class="cls-5" d="M754.7,271.3c-1.5-3.3-2.5-6.7-3-10.3-.5-3.8-.8-13.3-.8-28.1v-21.7c0-7.5-.2-12.7-.7-15.8-.9-5.1-2.5-9.4-4.9-12.8-2.5-3.7-6.4-6.8-11.5-9.1-5-2.3-11.3-3.4-18.9-3.4s-14.4,1.3-20.3,3.9c-6.1,2.7-10.9,6.6-14.1,11.6-3,4.7-5.2,10.8-6.5,18.2l-.8,4.7,23.7,3.9,1-4.8c1.5-7.2,3.6-10.4,5.1-11.7,1.9-1.7,5.3-2.6,10-2.6s8.6,1.2,11,3.7c.9,1,2.5,3.8,2.5,10.9s0,.6,0,1c-4.6,1.5-11.1,2.9-19.3,4.1-5.7.8-9.9,1.7-12.9,2.7-4.2,1.4-8,3.6-11.4,6.3-3.4,2.8-6.2,6.6-8.2,11.1-2,4.5-3,9.4-3,14.7,0,9.1,2.7,16.8,8.2,22.8,5.7,6.4,13.9,9.6,24.2,9.6s11.9-1.3,17.3-3.7c2.7-1.2,5.4-2.9,8.1-4.9.3,1.1.7,2.2,1.2,3.3l1.3,3.2h26l-3.1-6.7ZM717.5,254.6c-3,2.1-6.4,3.1-10.3,3.1s-6.6-1.5-7.6-2.6c-1.9-2-2.8-4.6-2.8-7.8s.4-4,1.3-5.7c.8-1.4,1.8-2.5,3.1-3.2,1-.5,3.5-1.5,9.9-2.7,5.9-1,11-2.2,15.2-3.5,0,5.9-.7,10.3-1.8,13.2-1.5,3.9-3.8,6.8-7,9Z"/>
      </g>
    </g>
  </g>
  <g>
    <polygon class="cls-3" points="1083.1 304.8 1378.3 304.8 1230.7 313.7 1083.1 304.8"/>
    <g>
      <path id="Blanco-2" data-name="Blanco" class="cls-4" d="M326.2,25.9H69.3c-10.5,0-19.2,8.5-19.2,18.9v254c0,10.4,8.6,19,19.2,19h256.9c10.5,0,19.2-8.5,19.2-19V44.8c0-10.4-8.6-18.9-19.2-18.9Z"/>
      <path class="cls-3" d="M168.5,85.1l-118.4,35.1v178.6c0,10.4,8.6,19,19.2,19h256.9c10.5,0,19.2-8.5,19.2-19V120.4l-176.8-35.3ZM301.7,275.2c-2.3,1-4.6,1.5-7,1.5-6.6,0-12.8-3.8-15.7-10.1l-30.6-68-30.1,67.9c-2.7,6.2-8.9,10.2-15.7,10.2h-100c-5.6,0-10.9-2.7-14.1-7.3-3.2-4.6-3.9-10.4-2-15.6l39.6-104.4c2.5-6.6,8.9-11,16.1-11h78.7l-15.3,34h-51.5l-26.7,70.4h64l41.2-92.9c2.7-6.2,8.9-10.1,15.7-10.2h0c6.8,0,12.9,3.9,15.7,10.1l46.4,103.1c3.9,8.6,0,18.6-8.7,22.4Z"/>
      <path class="cls-2" d="M167.7,58.9l177.7,45.7v-59.8c0-10.4-8.6-18.9-19.2-18.9H69.3c-10.5,0-19.2,8.5-19.2,18.9v59.6l117.5-45.5Z"/>
    </g>
    <g>
      <g>
        <path class="cls-1" d="M891.3,261c-.5-3.8-.8-13.3-.8-28.1v-21.7c0-7.5-.2-12.7-.7-15.8-.9-5.1-2.5-9.4-4.9-12.8-2.5-3.7-6.4-6.8-11.5-9.1-5-2.3-11.3-3.4-18.9-3.4s-14.4,1.3-20.3,3.9c-6.1,2.7-10.9,6.6-14.1,11.6-3,4.7-5.2,10.8-6.5,18.2l-.8,4.7,23.7,3.9,1-4.8c1.5-7.2,3.6-10.4,5.1-11.7,1.9-1.7,5.3-2.6,10-2.6s8.6,1.2,11,3.7c.9,1,2.5,3.8,2.5,10.9s0,.6,0,1c-4.6,1.5-11.1,2.9-19.3,4.1-5.7.8-9.9,1.7-12.9,2.7-4.2,1.4-8,3.6-11.4,6.3-3.4,2.8-6.2,6.6-8.2,11.1-2,4.5-3,9.4-3,14.7,0,9.1,2.7,16.8,8.2,22.8,5.7,6.4,13.9,9.6,24.2,9.6s11.9-1.3,17.3-3.7c2.7-1.2,5.4-2.9,8.1-4.9.3,1.1.7,2.2,1.2,3.3l1.3,3.2h26l-3.1-6.7c-1.5-3.3-2.5-6.7-3-10.3ZM857.1,254.6c-3,2.1-6.4,3.1-10.3,3.1s-6.6-1.5-7.6-2.6c-1.9-2-2.8-4.6-2.8-7.8s.4-4,1.3-5.7c.8-1.4,1.8-2.5,3.1-3.2,1-.5,3.5-1.5,9.9-2.7,5.9-1,11-2.2,15.2-3.5,0,5.9-.7,10.3-1.8,13.2-1.5,3.9-3.8,6.8-7,9Z"/>
        <path class="cls-1" d="M956,174.8c0,0-.2-.1-.3-.2-4.7-3.1-10-4.6-16-4.6s-15,2.5-21.2,7.5c-6,4.8-10.5,11.6-13.4,20.2-2.8,8.2-4.2,17.5-4.2,27.5s1.6,19.6,4.6,27.7c3.2,8.3,7.8,15,13.8,19.7,6.3,5,13.4,7.6,21,7.6s12.3-2,16.5-4.9v2.7h23.4v-142.4h-24.3v39.2ZM951.8,250.6c-4.5,6.4-8.8,6.4-10.2,6.4s-5.6,0-10.4-6.8c-3.7-5.3-5.6-13.7-5.6-25s1.7-20.4,5.2-25.5c3.9-5.8,7.7-6.5,10.1-6.5s6,0,10.6,6.9c3.6,5.4,5.4,14.3,5.4,26.5s-1.8,19.1-5.3,24.1Z"/>
        <path class="cls-1" d="M1083.7,170c-9.2,0-17,3.7-23.4,11.1-1.5-2.1-3.2-3.9-5.1-5.4-4.8-3.8-10.8-5.7-18-5.7s-12.3,1.8-17.4,5.3c-.3.2-.6.5-1,.7v-3.9h-22.9v105.9h24.3v-54.7c0-8.3.7-14.6,2-18.8,1.1-3.7,2.9-6.4,5.2-8.2,2.2-1.7,4.4-2.5,6.8-2.5s4.6.8,5.8,2.8c1.2,2,2.6,6,2.6,14v67.3h24.3v-60.7c0-8.7,1.5-15.2,4.4-18.7,2.6-3.2,5.6-4.7,9.3-4.7s3.1.5,4.4,1.4c1.4,1.1,2.4,2.6,3,4.5.5,1.7,1.1,5.3,1.1,12.8v65.4h24.3v-70.9c0-12.1-2.4-21-7.3-27.2-5.2-6.5-13-10-22.5-10Z"/>
        <rect class="cls-1" x="1128" y="172.2" width="24.3" height="105.9"/>
        <rect class="cls-1" x="1128" y="135.6" width="24.3" height="28.5"/>
        <path class="cls-1" d="M1236.8,183.9c-2.4-4.2-6.2-7.6-11-10.1-4.8-2.5-10.2-3.8-15.9-3.8-8.3,0-14.7,2.6-19.6,6.2v-4.1h-23v105.9h24.3v-57.4c0-13.8,2.7-19.6,4.9-22,3.1-3.3,6.4-4.8,10.5-4.8s4.1.6,5.8,1.8c1.8,1.3,3,3.1,3.8,5.5.6,2,1.4,5.9,1.4,13.6v63.3h24.3v-64c0-7.8-.3-13.3-.8-16.6-.9-5.2-2.5-9.7-4.7-13.6Z"/>
        <rect class="cls-1" x="1257.4" y="172.2" width="24.3" height="105.9"/>
        <rect class="cls-1" x="1257.4" y="135.6" width="24.3" height="28.5"/>
        <path class="cls-1" d="M1353.1,218.2c-4.1-2.1-10.8-4.7-20.6-7.9-8.2-2.7-10.5-3.6-11.1-3.9-1.4-.7-2.3-1.5-2.9-2.5-.6-.9-.9-2-.9-3.3,0-2.1.8-3.8,2.4-5.4,1.5-1.4,4.7-2.2,9.1-2.2s6.2.8,8,2.6c2,2,3.3,4.9,3.8,8.8l.6,5.2,24-4-.6-4.5c-.9-6.9-2.6-12.3-5.2-16.6-2.7-4.6-7-8.2-12.6-10.9-5.4-2.5-11.8-3.8-18.8-3.8s-9.4.8-13.6,2.3c-4.3,1.5-7.7,3.5-10.3,5.8-3.3,2.9-5.9,6.5-7.8,10.8-1.8,4.2-2.8,8.8-2.8,13.7s1.1,10.4,3.4,14.9c2.4,4.7,5.9,8.5,10.6,11.2,4.2,2.4,11.3,5.2,21.6,8.4,9.4,2.9,11.5,4.3,11.7,4.5.9.7,2.1,2.1,2.1,5.1s-1,5.4-3.1,7.5c-1.9,1.9-5,2.9-9.5,2.9s-7.7-1.1-10.1-3.5c-2.6-2.6-4.2-6.7-4.9-12.1l-.6-5.4-24.1,4.6.6,4.4c1.6,11.2,5.5,19.8,11.7,25.7,6.4,6.2,15.7,9.4,27.4,9.4s13.7-1.6,19.5-4.6c5.8-3.1,10.3-7.6,13.3-13.2,2.9-5.4,4.4-11.3,4.4-17.4s-1.3-11.7-3.8-16.1c-2.6-4.6-6.3-8.1-10.9-10.6Z"/>
        <path class="cls-1" d="M1411.8,253.8c-2.6.4-4,.5-4.8.5s-1,0-1.1-.1c-.1-.1-.3-.3-.5-.8,0-.1-.5-1.6-.5-7.5v-51.3h13.4v-22.4h-13.4v-39.1l-24.3,17.9v21.2h-9.8v22.4h9.8v50.4c0,13.8,1.1,18.4,1.9,20.7,1.4,4,3.9,7.3,7.5,9.7,3.7,2.6,8.6,3.9,14.7,3.9s7.4-.6,11.6-1.6l4.5-1.2-3.2-23.7-5.8,1Z"/>
        <path class="cls-1" d="M1477.7,176.4c-5.6-4.3-11.5-6.4-17.3-6.4s-8.1,1.3-11.5,4v-1.8h-23v105.9h24.3v-55.2c0-6.5.7-12.5,2.1-17.9.8-2.9,2-5.1,3.6-6.6,1.7-1.5,2.9-1.7,3.9-1.7,1.9,0,4.1.8,6.3,2.4l6.6,4.7,7.7-25.4-2.7-2Z"/>
        <path class="cls-1" d="M1557.8,261c-.5-3.8-.8-13.3-.8-28.1v-21.7c0-7.5-.2-12.7-.7-15.8-.9-5.1-2.5-9.4-4.9-12.8-2.5-3.7-6.4-6.8-11.5-9.1-5-2.3-11.3-3.4-18.9-3.4s-14.4,1.3-20.3,3.9c-6.1,2.7-10.9,6.6-14.1,11.6-3,4.7-5.2,10.8-6.5,18.2l-.8,4.7,23.7,3.9,1-4.8c1.5-7.2,3.6-10.4,5.1-11.7,1.9-1.7,5.3-2.6,10-2.6s8.6,1.2,11,3.7c.9,1,2.5,3.8,2.5,10.9s0,.6,0,1c-4.6,1.5-11.1,2.9-19.3,4.1-5.7.8-9.9,1.7-12.9,2.7-4.2,1.4-8,3.6-11.4,6.3-3.4,2.8-6.2,6.6-8.2,11.1-2,4.4-3,9.4-3,14.7,0,9.1,2.7,16.8,8.2,22.8,5.7,6.4,13.9,9.6,24.2,9.6s11.9-1.3,17.3-3.7c2.7-1.2,5.4-2.9,8.1-4.9.3,1.1.7,2.2,1.2,3.3l1.3,3.2h26l-3.1-6.7c-1.5-3.3-2.5-6.7-3-10.3ZM1523.7,254.6c-3,2.1-6.4,3.1-10.3,3.1s-6.6-1.5-7.6-2.6c-1.9-2-2.8-4.6-2.8-7.8s.4-4,1.3-5.7c.8-1.4,1.8-2.5,3.1-3.2,1-.5,3.5-1.5,9.9-2.7,5.9-1,11-2.2,15.2-3.5,0,5.9-.7,10.3-1.8,13.2-1.5,3.9-3.8,6.8-7,9Z"/>
        <path class="cls-1" d="M1623.7,237.5c-.8,7.2-2.7,12.4-5.5,15.6-2.5,2.8-5.3,4-8.8,4s-7.2-.7-11.2-6.5c-3.5-5-5.3-13.7-5.3-25.6s1.8-20.3,5.4-25.3c3.2-4.5,6.9-6.6,11.7-6.6s5.1,1,7.2,3.2c2.5,2.6,4.3,6.7,5.3,12.2l1,5,23.6-4.4-.7-4.5c-1.7-10.7-5.7-19.1-11.8-25.1-6.5-6.3-14.9-9.5-25-9.5s-15.4,2.3-22.1,6.8c-6.6,4.5-11.6,11.2-14.8,19.9-3,8.2-4.5,17.9-4.5,28.7,0,17,3.6,30.3,10.8,39.7,7.6,10,17.9,15,30.5,15s19-3.7,26-11.1c6.6-7,10.7-16.5,12.3-28.5l.6-4.5-24-3.8-.6,5.2Z"/>
        <rect class="cls-1" x="1653.9" y="172.2" width="24.3" height="105.9"/>
        <rect class="cls-1" x="1653.9" y="135.6" width="24.3" height="28.5"/>
        <path class="cls-1" d="M1730.6,170c-11.4,0-21.1,4.2-29,12.4-8.9,9.4-13.4,23.8-13.4,42.7s3.8,30.7,11.2,40.1c7.9,10,18.4,15,31.2,15s15.6-2.3,22.4-6.9c6.6-4.5,11.7-10.7,15.1-18.7,3.3-7.7,4.9-17.8,4.9-30.9s-3.8-29.2-11.3-38.7c-7.9-10-18.4-15.1-31-15.1ZM1748.3,224.6c0,11.6-1.9,20.2-5.7,25.5-4.5,6.2-8.9,7-11.9,7s-7.5-.7-12-6.9c-3.8-5.3-5.7-13.7-5.7-25s1.9-19.7,5.7-25c4.5-6.2,9-6.9,12-6.9s7.4.7,11.9,6.9c3.8,5.3,5.8,13.5,5.8,24.4Z"/>
        <path class="cls-1" d="M1852.7,183.9c-2.5-4.2-6.2-7.6-11-10.1-4.8-2.5-10.2-3.8-15.9-3.8-8.3,0-14.7,2.6-19.6,6.2v-4.1h-23v105.9h24.3v-57.4c0-13.8,2.7-19.6,4.9-22,3.1-3.3,6.4-4.8,10.5-4.8s4.1.6,5.8,1.8c1.8,1.3,3,3.1,3.8,5.4.6,2,1.4,5.9,1.4,13.6v63.3h24.3v-64c0-7.9-.3-13.3-.8-16.6-.9-5.2-2.5-9.7-4.7-13.6Z"/>
        <path class="cls-1" d="M1927.4,241c-1.8,6-4.1,10.3-6.8,12.8-2.4,2.2-5.2,3.2-8.6,3.2s-8.6-2-11.9-6.3c-3.1-3.9-5.1-9.5-5.9-16.6h58.2v-4.8c.2-2,.2-3.5.2-4.5,0-16.8-3.7-30.1-11-39.7-7.7-10.1-17.9-15.3-30.4-15.3s-23.2,5.2-31.1,15.5c-7.4,9.7-11.2,23.3-11.2,40.4s3.7,29.8,11.1,39.2c7.8,10,18.5,15.1,31.9,15.1s19.6-3.2,26.5-9.6c6.6-6.1,11.1-14.6,13.5-25.3l1.1-4.9-24.3-3.7-1.3,4.3ZM1895,211c.9-5,2.6-9.1,5.3-12.3,3.1-3.8,6.7-5.5,11-5.5s7.5.7,11.8,7.1c1.7,2.5,2.9,6.1,3.7,10.8h-31.8Z"/>
        <path class="cls-1" d="M2030.7,228.8c-2.6-4.6-6.3-8.1-10.9-10.6-4.1-2.1-10.8-4.7-20.6-7.9-8.2-2.7-10.5-3.6-11.1-3.9-1.4-.7-2.3-1.5-2.9-2.5-.6-.9-.9-2-.9-3.3,0-2.1.8-3.8,2.4-5.4,1.5-1.4,4.7-2.2,9.1-2.2s6.2.8,8,2.6c2,2,3.3,4.9,3.8,8.8l.6,5.2,24-4-.6-4.5c-.9-6.9-2.6-12.3-5.2-16.6-2.7-4.6-7-8.2-12.6-10.9-5.4-2.5-11.8-3.8-18.8-3.8s-9.4.8-13.6,2.3c-4.3,1.5-7.7,3.5-10.3,5.8-3.3,2.9-5.9,6.5-7.8,10.8-1.8,4.2-2.8,8.8-2.8,13.7s1.1,10.4,3.4,14.9c2.4,4.7,5.9,8.5,10.6,11.2,4.2,2.4,11.3,5.2,21.6,8.4,9.4,2.9,11.5,4.3,11.7,4.5.9.7,2.1,2.1,2.1,5.1s-1,5.4-3.1,7.5c-1.9,1.9-5,2.9-9.5,2.9s-7.7-1.1-10.1-3.5c-2.6-2.6-4.2-6.7-4.9-12.1l-.6-5.4-24.1,4.6.6,4.4c1.6,11.2,5.5,19.8,11.7,25.7,6.4,6.2,15.7,9.4,27.4,9.4s13.7-1.6,19.5-4.6c5.8-3.1,10.3-7.6,13.3-13.2,2.9-5.4,4.4-11.3,4.4-17.4s-1.3-11.7-3.8-16.1Z"/>
      </g>
      <g>
        <path class="cls-2" d="M474.4,237.5c-.8,7.2-2.7,12.4-5.5,15.6-2.5,2.8-5.3,4-8.8,4s-7.2-.7-11.2-6.5c-3.5-5-5.3-13.7-5.3-25.6s1.8-20.3,5.4-25.3c3.2-4.5,6.9-6.6,11.7-6.6s5.1,1,7.2,3.2c2.5,2.6,4.3,6.7,5.3,12.2l1,5,23.6-4.4-.7-4.5c-1.7-10.7-5.7-19.1-11.8-25.1-6.5-6.3-14.9-9.5-25-9.5s-15.4,2.3-22.1,6.8c-6.6,4.5-11.6,11.2-14.8,19.9-3,8.2-4.5,17.9-4.5,28.7,0,17,3.6,30.3,10.8,39.7,7.6,10,17.9,15,30.5,15s19-3.7,26-11.1c6.6-7,10.7-16.5,12.3-28.5l.6-4.5-24-3.8-.6,5.2Z"/>
        <path class="cls-2" d="M580.1,261c-.5-3.8-.8-13.3-.8-28.1v-21.7c0-7.5-.2-12.7-.7-15.8-.9-5.1-2.5-9.4-4.9-12.8-2.5-3.7-6.4-6.8-11.5-9.1-5-2.3-11.3-3.4-18.9-3.4s-14.4,1.3-20.3,3.9c-6.1,2.7-10.9,6.6-14.1,11.6-3,4.7-5.2,10.8-6.5,18.2l-.8,4.7,23.7,3.9,1-4.8c1.5-7.2,3.6-10.4,5.1-11.7,1.9-1.7,5.3-2.6,10-2.6s8.6,1.2,11,3.7c.9,1,2.5,3.8,2.5,10.9s0,.6,0,1c-4.6,1.5-11.1,2.9-19.3,4.1-5.7.8-9.9,1.7-12.9,2.7-4.2,1.4-8,3.6-11.4,6.3-3.4,2.8-6.2,6.6-8.2,11.1-2,4.5-3,9.4-3,14.7,0,9.1,2.7,16.8,8.2,22.8,5.7,6.4,13.9,9.6,24.2,9.6s11.9-1.3,17.3-3.7c2.7-1.2,5.4-2.9,8.1-4.9.3,1.1.7,2.2,1.2,3.3l1.3,3.2h26l-3.1-6.7c-1.5-3.3-2.5-6.7-3-10.3ZM545.9,254.6c-3,2.1-6.4,3.1-10.3,3.1s-6.6-1.5-7.6-2.6c-1.9-2-2.8-4.6-2.8-7.8s.4-4,1.3-5.7c.8-1.4,1.8-2.5,3.1-3.2,1-.5,3.5-1.5,9.9-2.7,5.9-1,11-2.2,15.2-3.5,0,5.9-.7,10.3-1.8,13.2-1.5,3.9-3.8,6.8-7,9Z"/>
        <path class="cls-2" d="M650.9,218.2c-4.1-2.1-10.8-4.7-20.6-7.9-8.2-2.7-10.5-3.6-11.1-3.9-1.4-.7-2.3-1.5-2.9-2.5-.6-.9-.9-2-.9-3.3,0-2.1.8-3.8,2.4-5.4,1.5-1.4,4.7-2.2,9.1-2.2s6.2.8,8,2.6c2,2,3.3,4.9,3.8,8.8l.6,5.2,24-4-.6-4.5c-.9-6.9-2.6-12.3-5.2-16.6-2.7-4.6-7-8.2-12.6-10.9-5.4-2.5-11.8-3.8-18.8-3.8s-9.4.8-13.6,2.3c-4.3,1.5-7.7,3.5-10.3,5.8-3.3,2.9-5.9,6.5-7.8,10.8-1.8,4.2-2.8,8.8-2.8,13.7s1.1,10.4,3.4,14.9c2.4,4.7,5.9,8.5,10.6,11.2,4.2,2.4,11.3,5.2,21.6,8.4,9.4,2.9,11.5,4.3,11.7,4.5.9.7,2.1,2.1,2.1,5.1s-1,5.4-3.1,7.5c-1.9,1.9-5,2.9-9.5,2.9s-7.7-1.1-10.1-3.5c-2.6-2.6-4.2-6.7-4.9-12.1l-.6-5.4-24.1,4.6.6,4.4c1.6,11.2,5.5,19.8,11.7,25.7,6.4,6.2,15.7,9.4,27.4,9.4s13.7-1.6,19.5-4.6c5.8-3.1,10.3-7.6,13.3-13.2,2.9-5.4,4.4-11.3,4.4-17.4s-1.3-11.7-3.8-16.1c-2.6-4.6-6.3-8.1-10.9-10.6Z"/>
        <path class="cls-2" d="M754.7,271.3c-1.5-3.3-2.5-6.7-3-10.3-.5-3.8-.8-13.3-.8-28.1v-21.7c0-7.5-.2-12.7-.7-15.8-.9-5.1-2.5-9.4-4.9-12.8-2.5-3.7-6.4-6.8-11.5-9.1-5-2.3-11.3-3.4-18.9-3.4s-14.4,1.3-20.3,3.9c-6.1,2.7-10.9,6.6-14.1,11.6-3,4.7-5.2,10.8-6.5,18.2l-.8,4.7,23.7,3.9,1-4.8c1.5-7.2,3.6-10.4,5.1-11.7,1.9-1.7,5.3-2.6,10-2.6s8.6,1.2,11,3.7c.9,1,2.5,3.8,2.5,10.9s0,.6,0,1c-4.6,1.5-11.1,2.9-19.3,4.1-5.7.8-9.9,1.7-12.9,2.7-4.2,1.4-8,3.6-11.4,6.3-3.4,2.8-6.2,6.6-8.2,11.1-2,4.5-3,9.4-3,14.7,0,9.1,2.7,16.8,8.2,22.8,5.7,6.4,13.9,9.6,24.2,9.6s11.9-1.3,17.3-3.7c2.7-1.2,5.4-2.9,8.1-4.9.3,1.1.7,2.2,1.2,3.3l1.3,3.2h26l-3.1-6.7ZM717.5,254.6c-3,2.1-6.4,3.1-10.3,3.1s-6.6-1.5-7.6-2.6c-1.9-2-2.8-4.6-2.8-7.8s.4-4,1.3-5.7c.8-1.4,1.8-2.5,3.1-3.2,1-.5,3.5-1.5,9.9-2.7,5.9-1,11-2.2,15.2-3.5,0,5.9-.7,10.3-1.8,13.2-1.5,3.9-3.8,6.8-7,9Z"/>
      </g>
    </g>
  </g>
</svg>