<?xml version="1.0" encoding="UTF-8"?>
<svg id="Capa_1" data-name="Capa 1" xmlns="http://www.w3.org/2000/svg" version="1.1" viewBox="0 0 752.9 591.2">
  <defs>
    <style>
      .cls-1 {
        fill: #509b35;
      }

      .cls-1, .cls-2, .cls-3, .cls-4 {
        stroke-width: 0px;
      }

      .cls-2 {
        fill: #1f3c73;
      }

      .cls-3 {
        fill: #509934;
      }

      .cls-4 {
        fill: #fff;
      }
    </style>
  </defs>
  <g id="Logo_CMYK_Borde" data-name="Logo CMYK + Borde">
    <g>
      <path class="cls-4" d="M197.5,424.7c1,.1,2.1.2,3.1.2h351.5c4.2,0,8.3-.9,11.9-2.4,1.8-.8,3.6-1.7,5.2-2.8,3.3-2.2,6.1-5,8.3-8.3,3.3-4.9,5.2-10.8,5.2-17.1v-246.9s0,0,0,0v-21.8s0,0,0,0V42.6c0-6.3-1.9-12.2-5.2-17.1-2.2-3.3-5-6.1-8.3-8.3s-3.4-2.1-5.2-2.8c-3.7-1.6-7.7-2.4-11.9-2.4H200.6c-1.1,0-2.1,0-3.1.2-15.4,1.6-27.5,14.7-27.5,30.5v82.4s0,0,0,0v21.9s0,0,0,0v247.2c0,15.9,12.1,28.9,27.5,30.5Z"/>
      <path class="cls-4" d="M578.4,558.3H174.4c-2.4,0-4.4,1.9-4.4,4.3,0,2.4,1.8,4.4,4.2,4.6l202,12.1c0,0,.2,0,.3,0s.2,0,.3,0l202-12.1c2.4-.1,4.3-2.2,4.2-4.6,0-2.4-2-4.3-4.4-4.3Z"/>
      <path class="cls-4" d="M170.4,524.5l-1.4-3.1c-.5-1.1-.8-2.2-1-3.4,0-.7-.3-3.2-.3-12.1v-9.8c0-3.7-.1-6.2-.4-7.9-.5-3-1.5-5.6-2.9-7.6-1.6-2.3-3.9-4.2-6.9-5.6-2.8-1.3-6.1-1.9-10.2-1.9s-7.6.7-10.7,2.1c-3.5,1.6-6.3,3.9-8.2,6.9-.6,1-1.2,2.1-1.7,3.3-.5-1.3-1-2.5-1.6-3.6-1.7-2.8-4.2-5.1-7.5-6.6-3-1.4-6.4-2.1-10.1-2.1s-5.1.4-7.5,1.3c-2.4.9-4.4,2.1-6,3.5-1.9,1.7-3.5,3.9-4.6,6.4,0,0,0,.2,0,.2-.5-1.4-1.1-2.7-1.9-3.8-1.6-2.3-3.9-4.2-6.9-5.6-2.8-1.3-6.1-1.9-10.2-1.9s-7.6.7-10.7,2.1c-3.5,1.6-6.3,3.9-8.2,6.9-.3.4-.5.8-.7,1.3-1-1.8-2.1-3.4-3.5-4.8-3.7-3.6-8.5-5.5-14.1-5.5s-8.5,1.3-12.2,3.8c-3.8,2.6-6.5,6.3-8.3,11.2-1.5,4.2-2.3,9.1-2.3,14.6,0,8.7,1.9,15.7,5.7,20.8,4.2,5.6,10.1,8.5,17,8.5s10.7-2.2,14.6-6.4c.6-.7,1.2-1.4,1.8-2.2.6,1,1.3,1.9,2.1,2.8,3.3,3.8,8.2,5.7,13.9,5.7s6.5-.7,9.4-2.1c0,0,.2,0,.2-.1.8.8,1.9,1.2,3,1.2h11.2c1.5,0,2.9-.8,3.7-2,.4-.6.6-1.3.7-2,3.6,3.3,8.6,5.1,14.7,5.1s7.5-.9,10.6-2.6c2.9-1.6,5.2-3.8,7-6.5.7,1.2,1.4,2.3,2.4,3.4,3.3,3.8,8.2,5.7,13.9,5.7s6.5-.7,9.4-2.1c0,0,.2,0,.2-.1.8.8,1.9,1.2,3,1.2h11.2c1.5,0,2.9-.8,3.7-2,.8-1.3.9-2.9.3-4.2ZM107.7,512.2c-.3,0-.5-.1-.6-.2.2,0,.4.1.6.2ZM143.9,512.6c-.2,0-.3,0-.4,0,0,0,0-.1,0-.2s0-.1,0-.2c.4-.1,1.3-.4,2.9-.7.1,0,.3,0,.4,0-.2.2-.3.3-.5.4-.7.5-1.4.7-2.3.7ZM128.1,499.1h.4c-.6.7-1.1,1.4-1.6,2.2-.7-1.2-1.6-2.3-2.5-3.3h.3c.3-.1.6-.2.9-.3.7.7,1.6,1.3,2.5,1.4ZM92.3,504.5l-1.5.3v-2.3c.5.7.9,1.4,1.5,2ZM37.3,502c-1,.7-1.6,1.8-1.7,3l-.3,2.3c-.4,3.2-1.1,4.3-1.4,4.5-.3.4-.5.4-.9.4s-.9,0-1.6-1.1c-.5-.7-1.6-2.9-1.6-9s1.1-8.1,1.6-8.8c.8-1.1,1.3-1.2,1.9-1.2s.1,0,.1,0c0,0,0,0,.1.1.2.2.8,1,1.2,3.2l.4,2.2c.2,1.2.9,2.2,1.9,2.8.4.3.9.5,1.4.6-.5.2-.9.4-1.3.7ZM41.3,501.2l9.4-1.8c.3,0,.6-.1.9-.3h0c-.9,1-1.6,2.1-2.2,3.3l-8.1-1.3ZM67,512.6c-.2,0-.3,0-.4,0,0,0,0-.1,0-.2s0-.1,0-.2c.4-.1,1.3-.4,2.9-.7.1,0,.3,0,.4,0-.2.2-.3.3-.5.4-.7.5-1.4.7-2.3.7Z"/>
      <path class="cls-4" d="M740.1,501.7c-.8-1.4-1.7-2.6-2.8-3.7h.3c2.4-.4,4-2.6,3.7-5l-.3-2.1c-.5-3.8-1.5-6.8-2.9-9.3-1.7-2.8-4.2-5.1-7.5-6.6-3-1.4-6.4-2.1-10.1-2.1s-5.1.4-7.5,1.3c-2.4.9-4.4,2.1-6,3.5-1.9,1.7-3.5,3.9-4.6,6.4-.1.3-.2.7-.4,1-.7-1.3-1.4-2.5-2.2-3.5-4.2-5.6-10.1-8.6-16.9-8.6s-12.9,3-17.2,8.7c-1.2,1.6-2.3,3.5-3.1,5.5-.5-2.1-1.3-4.1-2.3-5.8-1.5-2.6-3.8-4.7-6.7-6.3-2.7-1.5-5.8-2.2-9-2.2s-5,.5-7.2,1.4c-.5-.2-1.1-.4-1.8-.4h-9.8c-2.5,0-4.4,2-4.4,4.4v6.5c-.7-1.2-1.4-2.4-2.2-3.5-4.3-5.5-10.3-8.4-17.1-8.4s-11.7,2.4-16,6.9c-1.3,1.4-2.4,2.9-3.3,4.6v-6.1c0-.6-.1-1.3-.4-1.8.3-.6.4-1.2.4-1.8v-12.9c0-2.5-2-4.4-4.4-4.4h-10.4c-2.5,0-4.4,2-4.4,4.4v12.9c0,.6.1,1.3.4,1.8-.3.6-.4,1.2-.4,1.8v1.9c-.5-.6-1-1.3-1.6-1.9-3.7-3.6-8.5-5.5-14.1-5.5s-8.5,1.3-12.2,3.8c-3.5,2.4-6.1,5.8-7.8,10.2-.6-2.5-1.4-4.6-2.6-6.4-1.6-2.3-3.9-4.2-6.9-5.6-2.8-1.3-6.1-1.9-10.2-1.9s-7.6.7-10.7,2.1c-1.8.8-3.3,1.7-4.7,2.9-.1-.1-.2-.2-.3-.3l-1.2-.9c-3.2-2.5-6.7-3.8-10.1-3.8s-3.4.3-5,1c-.2,0-.4,0-.5,0h-9.8c-.7,0-1.3.2-1.9.5-.6-.3-1.2-.5-1.9-.5h-1.6v-13c0-1.7-.9-3.2-2.5-4-.6-.3-1.3-.5-2-.5s-1.9.3-2.7.9l-10.4,7.7c-1.1.8-1.8,2.2-1.8,3.6v5.2c-2.4,0-4.4,2-4.4,4.4h0c-1.4-1.3-3-2.4-4.9-3.3-3-1.4-6.4-2.1-10.1-2.1s-5.1.4-7.5,1.3c-2.4.9-4.4,2.1-6,3.5-1.2,1-2.2,2.3-3.1,3.7v-3c0-.6-.1-1.3-.4-1.8.3-.6.4-1.2.4-1.8v-12.9c0-2.5-2-4.4-4.4-4.4h-10.4c-2.5,0-4.4,2-4.4,4.4v12.9c0,.6.1,1.3.4,1.8-.3.6-.4,1.2-.4,1.8v6.2c-.4-1.1-.9-2.2-1.5-3.2-1.5-2.6-3.8-4.7-6.7-6.3-2.7-1.5-5.8-2.2-9-2.2s-5,.5-7.2,1.4c-.5-.2-1.1-.4-1.8-.4h-9.8c-1,0-2,.4-2.8,1,0,0,0-.1,0-.2v-12.9c0-2.5-2-4.4-4.4-4.4h-10.4c-2.5,0-4.4,2-4.4,4.4v12.9c0,.6.1,1.3.4,1.8-.3.6-.4,1.2-.4,1.8v4.8c-.6-1.5-1.4-2.9-2.3-4.1-3.2-4-7.8-6.1-13.3-6.1s-7.3,1.2-10.3,3.4c-2.9-2.3-6.4-3.4-10.5-3.4s-4.7.4-6.8,1.3c-.5-.2-1.1-.3-1.7-.3h-9.8c-1.2,0-2.2.5-3,1.2v-13.3c0-2.5-2-4.4-4.4-4.4h-10.4c-2.5,0-4.4,2-4.4,4.4v11.4c-1-.2-2-.3-3.1-.3-4.4,0-8.5,1.4-12.1,4.3-2.8,2.3-5,5.4-6.6,9.2-.6-2.2-1.4-4.2-2.5-5.9-1.6-2.3-3.9-4.2-6.9-5.6-2.8-1.3-6.1-1.9-10.2-1.9s-7.6.7-10.7,2.1c-3.5,1.6-6.3,3.9-8.2,6.9-1.7,2.6-2.9,6-3.6,10l-.4,2.2c-.2,1.2,0,2.4.8,3.3.7,1,1.7,1.6,2.9,1.8h.4c-1.2,1.5-2.2,3.1-3,4.9-1.2,2.6-1.8,5.5-1.8,8.6,0,5.3,1.6,9.8,4.8,13.4,3.3,3.8,8.2,5.7,13.9,5.7s6.5-.7,9.4-2.1c0,0,.2,0,.2-.1.8.8,1.9,1.2,3,1.2h11.2c1.5,0,2.9-.8,3.7-2,.8-1.3.9-2.9.3-4.2l-.7-1.6c1.2,1.7,2.6,3.3,4.2,4.5,3.6,2.9,7.6,4.4,12,4.4s4.4-.4,6.4-1.2c.4.1.8.2,1.3.2h10c1.6,0,2.9-.8,3.7-2.1.8,1.2,2.2,2.1,3.7,2.1h10.4c2.5,0,4.4-2,4.4-4.4v-24.8c0-4.3.4-6.3.7-7.2.2-.5.4-1.1.8-1.4.1.6.2,1.6.2,2.9v30.5c0,2.5,2,4.4,4.4,4.4h10.4c2.5,0,4.4-2,4.4-4.4v-27.5c0-4.3.9-5.5,1-5.6.2-.2.3-.3.4-.4,0,.6.2,1.8.2,3.9v29.7c0,2.5,2,4.4,4.4,4.4h10.4c1.4,0,2.7-.7,3.5-1.7.8,1,2.1,1.7,3.5,1.7h10.4c1.5,0,2.8-.7,3.6-1.8.8,1.1,2.1,1.8,3.6,1.8h10.4c2.5,0,4.4-2,4.4-4.4v-26c0-5.4,1-6.8,1-6.9.7-.8,1.2-.8,1.7-.8s.2,0,.2,0c0,0,0,0,0,.2,0,.2.4,1.4.4,4.8v28.7c0,2.5,2,4.4,4.4,4.4h10.4c1.5,0,2.8-.8,3.6-1.9.8,1.1,2.1,1.9,3.6,1.9h10.4c2.5,0,4.4-2,4.4-4.4v-3c.7,1.1,1.6,2.1,2.5,3,3.7,3.6,8.8,5.4,15.2,5.4s7.5-.9,10.6-2.6c3.3-1.8,5.9-4.4,7.7-7.8.2-.4.3-.7.5-1.1.2.8.3,1.5.5,2,.9,2.7,2.6,4.9,5,6.6,2.3,1.7,5.3,2.5,8.9,2.5s4-.3,6.2-.9l1.3-.3c.7.4,1.4.6,2.3.6h10.4c2.5,0,4.4-2,4.4-4.4v-25c0-2.5.3-4.9.8-6.9l2.3,1.7c.6.4,1.3.7,2,.8.1.2.2.4.3.6.7,1,1.7,1.6,2.9,1.8h.4c-1.2,1.5-2.2,3.1-3,4.9-1.2,2.6-1.8,5.5-1.8,8.6,0,5.3,1.6,9.8,4.8,13.4,3.3,3.8,8.2,5.7,13.9,5.7s6.5-.7,9.4-2.1c0,0,.2,0,.2-.1.8.8,1.9,1.2,3,1.2h11.2c1.5,0,2.9-.8,3.7-2,.8-1.3.9-2.9.3-4.2l-1-2.2c.2.3.4.6.6.9,4.2,5.6,10.1,8.5,17,8.5s10.7-2.2,14.6-6.4c.4-.4.7-.8,1.1-1.2v2.2c0,2.5,2,4.4,4.4,4.4h10.4c2.5,0,4.4-2,4.4-4.4v-6.2c.6,1.1,1.3,2.2,2,3.2,4.3,5.5,10.3,8.4,17.2,8.4s8.6-1.3,12.3-3.8c2.9-2,5.3-4.7,7.1-7.9v6.3c0,2.5,2,4.4,4.4,4.4h10.4c2.5,0,4.4-2,4.4-4.4v-26c0-5.4,1-6.8,1-6.9.7-.8,1.2-.8,1.7-.8s.2,0,.2,0c0,0,0,0,0,.2,0,.2.4,1.4.4,4.8v28.7c0,2.5,2,4.4,4.4,4.4h10.4c2.5,0,4.4-2,4.4-4.4v-6.7c.7,1.3,1.4,2.5,2.3,3.6,4.3,5.6,10.4,8.5,17.6,8.5s10.8-1.8,14.7-5.5c1.7-1.6,3.2-3.5,4.4-5.7,1.1,2.2,2.4,4.2,4.1,5.8,3.7,3.6,8.8,5.4,15.2,5.4s7.5-.9,10.6-2.6c3.3-1.8,5.9-4.4,7.7-7.8,1.7-3.1,2.5-6.5,2.5-10.1s-.8-6.9-2.3-9.6ZM683.3,512.3c-.6,0-1.2,0-2.1-1.2,0,0-.1-.2-.2-.2h4.2c-.4.7-.6,1-.8,1.1-.2.2-.5.4-1.1.4ZM720.6,512.2c-.3,0-.5-.1-.6-.2.2,0,.4.1.6.2ZM600,493.6c1-1.4,1.5-1.4,2-1.4s1,0,2,1.4c.6.9,1.7,3.2,1.7,8.4s-1.1,8-1.7,8.9c-1,1.4-1.5,1.4-2,1.4s-1,0-2-1.4c-.6-.9-1.7-3.2-1.7-8.7s1.1-7.7,1.7-8.6ZM504.6,512.6c-.2,0-.3,0-.4,0,0,0,0-.1,0-.2s0-.1,0-.2c.4-.1,1.3-.4,2.9-.7.1,0,.3,0,.4,0-.2.2-.3.3-.5.4-.7.5-1.4.7-2.3.7ZM460.7,510.5h-.5c0,0,0-17.6,0-17.6h1v17.5c-.2,0-.3,0-.5,0ZM421.7,512.2c-.3,0-.5-.1-.6-.2.2,0,.4.1.6.2ZM438.5,498h.3c.8-.2,1.6-.6,2.2-1.1v4.3c-.7-1.2-1.5-2.2-2.5-3.2ZM406.3,504.5l-1.3.3v-2c.4.6.8,1.2,1.3,1.7ZM551.9,502c-1,.7-1.6,1.8-1.7,3l-.3,2.3c-.4,3.2-1.1,4.3-1.4,4.5-.3.4-.5.4-.9.4s-.9,0-1.6-1.1c-.5-.7-1.6-2.9-1.6-9s1.1-8.1,1.6-8.8c.8-1.1,1.3-1.2,1.9-1.2s.1,0,.1,0c0,0,0,0,.1.1.2.2.8,1,1.2,3.2l.4,2.2c.2,1.2.9,2.2,1.9,2.8.4.3.9.5,1.4.6-.5.2-.9.4-1.3.7ZM563.4,502.4l-7.6-1.2,7.6-1.4v2.7ZM205.7,512.6c-.2,0-.3,0-.4,0,0,0,0-.1,0-.2s0-.1,0-.2c.4-.1,1.3-.4,2.9-.7.1,0,.3,0,.4,0-.2.2-.3.3-.5.4-.7.5-1.4.7-2.3.7ZM251,502.9c0,5.3-1,7.5-1.6,8.3-.2.3-.8,1.1-1.2,1.1s-.6-.3-1.3-1.3c-.6-.9-1.7-3.3-1.7-8.7s1.1-8.3,1.6-9c.5-.7.8-1,1.1-1s.8.4,1.3,1.2c.6.9,1.7,3.4,1.7,9.4Z"/>
    </g>
    <g id="Cuatricromía">
      <g id="Verdes">
        <g>
          <path class="cls-1" d="M225.4,518.5c-.2-1.2-.4-4.3-.4-12.7v-9.8c0-3.4-.1-5.8-.3-7.2-.4-2.3-1.1-4.3-2.2-5.9-1.1-1.7-2.8-3-5.1-4.1-2.2-1-4.9-1.5-8.3-1.5s-6.3.6-8.9,1.7c-2.7,1.2-4.8,3-6.3,5.2-1.4,2.1-2.4,4.9-2.9,8.3l-.4,2.2,10.2,1.7.4-2.1c.7-3.2,1.6-4.7,2.3-5.3.9-.8,2.5-1.2,4.7-1.2s4.1.6,5.2,1.8c.4.5,1.1,1.7,1.1,4.9s0,.2,0,.4c-2.1.7-5,1.3-8.8,1.9-2.5.4-4.4.8-5.7,1.2-1.9.6-3.5,1.6-5,2.8-1.5,1.3-2.8,3-3.7,5-.9,2-1.4,4.3-1.4,6.8,0,4.2,1.2,7.7,3.7,10.4,2.5,2.8,6.1,4.3,10.6,4.3s5.2-.6,7.5-1.6c1.3-.6,2.6-1.5,4-2.5.2.6.4,1.2.6,1.8l.6,1.4h11.2l-1.4-3.1c-.7-1.5-1.1-3-1.3-4.6ZM214.6,505.5c0,3.3-.5,5.1-.8,6-.7,1.8-1.7,3.1-3.2,4.1-1.4,1-3,1.5-4.9,1.5s-2.9-.4-3.7-1.3c-.8-.9-1.2-2-1.2-3.4s.2-1.7.6-2.5c.3-.7.8-1.1,1.4-1.5.5-.2,1.6-.7,4.6-1.2,2.8-.5,5.2-1.1,7.2-1.7Z"/>
          <path class="cls-1" d="M254.9,479.7c-.2-.1-.4-.3-.6-.4-2-1.4-4.4-2-6.9-2s-6.5,1.1-9.3,3.3c-2.7,2.1-4.7,5.2-6,9.2-1.2,3.8-1.9,8-1.9,12.5s.7,9,2.1,12.6c1.4,3.8,3.5,6.8,6.2,9,2.8,2.2,5.8,3.4,9.2,3.4s5.5-.9,7.6-2.5v1.5h10v-64.6h-10.4v18ZM253.1,513.7c-1.4,2-3,3-4.8,3s-3.4-1-4.9-3.2c-1.6-2.4-2.5-6.2-2.5-11.3s.8-9.2,2.3-11.4c1.8-2.7,3.6-3,4.8-3s3.1.3,5,3.2c1.6,2.4,2.4,6.4,2.4,11.9s-.8,8.6-2.3,10.8Z"/>
          <path class="cls-1" d="M312,477.3c-4.1,0-7.7,1.8-10.5,5.3-.7-1.1-1.5-2-2.5-2.8-2.1-1.7-4.7-2.5-7.8-2.5s-5.4.8-7.6,2.4c-.3.2-.6.5-.9.7v-2.1h-9.8v48h10.4v-24.8c0-3.7.3-6.6.9-8.5.5-1.7,1.3-2.9,2.3-3.7,1-.8,2.1-1.2,3.3-1.2,1.8,0,2.5.7,2.9,1.4.5.9,1.2,2.7,1.2,6.3v30.5h10.4v-27.5c0-3.9.7-6.8,2-8.4,1.2-1.5,2.6-2.2,4.5-2.2s1.6.2,2.2.7c.7.5,1.1,1.2,1.3,2,.2.7.5,2.3.5,5.7v29.7h10.4v-32.1c0-5.5-1.1-9.6-3.3-12.4-2.3-2.9-5.6-4.4-9.8-4.4Z"/>
          <rect class="cls-1" x="332.1" y="478.3" width="10.4" height="48"/>
          <rect class="cls-1" x="332.1" y="461.7" width="10.4" height="12.9"/>
          <path class="cls-1" d="M380.3,483.5c-1.1-1.9-2.7-3.4-4.9-4.6-2.1-1.1-4.4-1.7-6.9-1.7s-6.5,1-9,3.1v-2.1h-9.8v48h10.4v-26c0-6.2,1.2-8.8,2.2-9.9,1.4-1.5,3-2.3,5-2.3s2,.3,2.8.9c.8.6,1.4,1.4,1.7,2.5.3.9.6,2.6.6,6.1v28.7h10.4v-29c0-3.6-.1-6-.4-7.5-.4-2.4-1.1-4.4-2.1-6.2Z"/>
          <rect class="cls-1" x="390.1" y="461.7" width="10.4" height="12.9"/>
          <rect class="cls-1" x="390.1" y="478.3" width="10.4" height="48"/>
          <path class="cls-1" d="M432.5,499.1c-1.8-1-4.8-2.1-9.2-3.6-3.7-1.3-4.8-1.7-5-1.8-.7-.3-1.1-.7-1.4-1.2-.3-.4-.4-.9-.4-1.4,0-.9.3-1.6,1.1-2.3.5-.5,1.7-1.1,4.3-1.1s3,.4,3.8,1.2c.9.9,1.5,2.2,1.7,3.9l.3,2.3,10.3-1.7-.3-2.1c-.4-3.2-1.2-5.6-2.4-7.6-1.2-2.1-3.1-3.7-5.6-4.9-2.4-1.1-5.2-1.7-8.2-1.7s-4.1.3-5.9,1c-1.9.7-3.4,1.6-4.5,2.6-1.5,1.3-2.7,3-3.5,4.9-.8,1.9-1.3,4-1.3,6.3s.5,4.8,1.5,6.8c1.1,2.1,2.7,3.9,4.7,5.1,1.9,1.1,5,2.3,9.6,3.8,4.3,1.3,5.2,2,5.4,2.1.4.4.9.9.9,2.2s-.4,2.3-1.4,3.3c-.9.9-2.4,1.4-4.5,1.4s-3.7-.5-4.8-1.7c-1.2-1.2-1.9-3-2.2-5.4l-.3-2.4-10.4,2,.3,2.1c.7,5.1,2.5,9.1,5.3,11.7,2.8,2.8,6.9,4.2,12,4.2s6-.7,8.5-2.1c2.6-1.4,4.6-3.4,5.9-6,1.3-2.5,2-5.2,2-8s-.6-5.4-1.7-7.4c-1.2-2.1-2.8-3.7-4.8-4.8Z"/>
          <path class="cls-1" d="M459.2,515.3c-1.2.2-1.9.3-2.2.3-.5,0-.7,0-.7,0,0,0-.2-.2-.3-.4,0,0-.2-.7-.2-3.3v-23.3h6v-10.2h-6v-17.4l-10.4,7.7v9.7h-4.4v10.2h4.4v22.9c0,6.3.5,8.4.9,9.5.6,1.8,1.8,3.3,3.3,4.4,1.6,1.1,3.7,1.7,6.3,1.7s3.2-.2,5.1-.7l1.9-.5-1.4-10.8-2.3.4Z"/>
          <path class="cls-1" d="M488.4,480.1c-4.4-3.3-9.2-3.9-12.8-.8,0,0,0,0-.1.1v-1.1h-9.8v48h10.4v-25c0-2.9.3-5.6.9-8.1.3-1.3.9-2.3,1.6-3,1.5-1.4,3.2-1.1,5.1.3l2.5,1.9,3.4-11.3-1.2-.9Z"/>
          <path class="cls-1" d="M524.3,518.5c-.2-1.2-.4-4.3-.4-12.7v-9.8c0-3.4-.1-5.8-.3-7.2-.4-2.3-1.1-4.3-2.2-5.9-1.1-1.7-2.8-3-5.1-4.1-2.2-1-4.9-1.5-8.3-1.5s-6.3.6-8.9,1.7c-2.7,1.2-4.8,3-6.3,5.2-1.4,2.1-2.4,4.9-2.9,8.3l-.4,2.2,10.2,1.7.4-2.1c.7-3.2,1.6-4.7,2.3-5.3.9-.8,2.5-1.2,4.7-1.2s4.1.6,5.2,1.8c.4.5,1.1,1.7,1.1,4.9s0,.2,0,.4c-2.1.7-5,1.3-8.8,1.9-2.5.4-4.4.8-5.7,1.2-1.9.6-3.5,1.6-5,2.8-1.5,1.3-2.8,3-3.7,5-.9,2-1.4,4.3-1.4,6.8,0,4.2,1.2,7.7,3.7,10.4,2.5,2.8,6.1,4.3,10.6,4.3s5.2-.6,7.5-1.6c1.3-.6,2.6-1.5,4-2.5.2.6.4,1.2.6,1.8l.6,1.4h11.2l-1.4-3.1c-.7-1.5-1.1-3-1.3-4.6ZM513.4,505.5c0,3.3-.5,5.1-.8,6-.7,1.8-1.7,3.1-3.2,4.1-1.4,1-3,1.5-4.9,1.5s-2.9-.4-3.7-1.3c-.8-.9-1.2-2-1.2-3.4s.2-1.7.6-2.5c.3-.7.8-1.1,1.4-1.5.5-.2,1.6-.7,4.6-1.2,2.8-.5,5.2-1.1,7.2-1.7Z"/>
          <path class="cls-1" d="M554.3,507.8c-.4,3.2-1.2,5.6-2.4,7-1.2,1.3-2.5,1.9-4.2,1.9s-3.9-1-5.3-3c-1.6-2.3-2.3-6.1-2.3-11.5s.8-9.1,2.4-11.4c1.5-2.1,3.2-3.1,5.5-3.1s2.5.5,3.5,1.5c1.1,1.2,1.9,3,2.4,5.5l.4,2.2,10.1-1.9-.3-2.1c-.8-4.9-2.5-8.7-5.3-11.4-2.9-2.8-6.5-4.2-11-4.2s-6.7,1-9.7,3c-3,2-5.2,5.1-6.6,9-1.3,3.8-2,8.2-2,13.1,0,7.7,1.6,13.8,4.9,18.1,3.4,4.5,7.9,6.7,13.4,6.7s8.3-1.7,11.4-5c3-3.2,4.8-7.5,5.5-13l.3-2.1-10.3-1.7-.3,2.3Z"/>
          <rect class="cls-1" x="567.9" y="461.7" width="10.4" height="12.9"/>
          <rect class="cls-1" x="567.9" y="478.3" width="10.4" height="48"/>
          <path class="cls-1" d="M602,477.3c-5,0-9.3,1.9-12.7,5.5-4,4.3-6.1,10.8-6.1,19.5s1.7,14,5,18.3c3.5,4.5,8.1,6.7,13.7,6.7s6.8-1,9.8-3.1c2.9-2,5.2-4.9,6.7-8.5,1.5-3.5,2.2-8.1,2.2-14.1s-1.7-13.3-5.1-17.6c-3.5-4.5-8.1-6.7-13.7-6.7ZM596.4,491c1.6-2.2,3.4-3.2,5.6-3.2s4,1.1,5.6,3.2c1.7,2.4,2.6,6.1,2.6,11s-.9,9.1-2.5,11.5c-1.6,2.2-3.3,3.2-5.6,3.2s-4.1-1-5.6-3.2c-1.7-2.4-2.5-6.2-2.5-11.3s.9-8.9,2.5-11.2Z"/>
          <path class="cls-1" d="M656.5,483.5c-1.1-1.9-2.7-3.4-4.9-4.6-2.1-1.1-4.4-1.7-6.9-1.7s-6.5,1-9,3.1v-2.1h-9.8v48h10.4v-26c0-6.2,1.2-8.8,2.2-9.9,1.4-1.5,3-2.3,5-2.3s2,.3,2.8.9c.8.6,1.4,1.4,1.7,2.5.3.9.6,2.6.6,6.1v28.7h10.4v-29c0-3.6-.1-6-.4-7.5-.4-2.4-1.1-4.4-2.1-6.2Z"/>
          <path class="cls-1" d="M690.5,509.4c-.8,2.7-1.8,4.7-3.1,5.8-1.1,1-2.5,1.5-4.1,1.5s-4.1-1-5.6-3c-1.4-1.8-2.2-4.2-2.6-7.4h26.1v-2.2c0-.9,0-1.6,0-2,0-7.7-1.7-13.7-4.9-18.1-3.4-4.5-7.9-6.8-13.3-6.8s-10.2,2.3-13.7,7c-3.3,4.4-5,10.6-5,18.4s1.7,13.6,5,17.9c3.5,4.5,8.2,6.8,14,6.8s8.6-1.4,11.6-4.3c3-2.8,5-6.6,6.1-11.5l.5-2.3-10.5-1.6-.5,1.9ZM675.5,495.9c.4-2.2,1.2-4.1,2.3-5.5,1.4-1.7,3.1-2.6,5.2-2.6s4.1,1,5.6,3.3c.7,1.1,1.3,2.7,1.6,4.8h-14.7Z"/>
          <path class="cls-1" d="M736.3,503.8c-1.2-2.1-2.8-3.7-4.8-4.8-1.8-1-4.8-2.1-9.2-3.6-3.7-1.3-4.8-1.7-5-1.8-.7-.3-1.1-.7-1.4-1.2-.3-.4-.4-.9-.4-1.4,0-.9.3-1.6,1.1-2.3.5-.5,1.7-1.1,4.3-1.1s3,.4,3.8,1.2c.9.9,1.5,2.2,1.7,3.9l.3,2.3,10.3-1.7-.3-2.1c-.4-3.2-1.2-5.6-2.4-7.6-1.2-2.1-3.1-3.7-5.6-4.9-2.4-1.1-5.2-1.7-8.2-1.7s-4.1.3-5.9,1c-1.9.7-3.4,1.6-4.5,2.6-1.5,1.3-2.7,3-3.5,4.9-.8,1.9-1.3,4-1.3,6.3s.5,4.8,1.5,6.8c1.1,2.1,2.7,3.9,4.7,5.1,1.9,1.1,5,2.3,9.6,3.8,4.3,1.3,5.2,2,5.4,2.1.4.4.9.9.9,2.2s-.4,2.3-1.4,3.3c-.9.9-2.4,1.4-4.5,1.4s-3.7-.5-4.8-1.7c-1.2-1.2-1.9-3-2.2-5.4l-.3-2.4-10.4,2,.3,2.1c.7,5.1,2.5,9.1,5.3,11.7,2.8,2.8,6.9,4.2,12,4.2s6-.7,8.5-2.1c2.6-1.4,4.6-3.4,5.9-6,1.3-2.5,2-5.2,2-8s-.6-5.4-1.7-7.4Z"/>
        </g>
        <g>
          <path class="cls-3" d="M336.4,98.4l-162,48.5v247.2c0,14.4,11.8,26.2,26.2,26.2h351.5c14.4,0,26.2-11.8,26.2-26.2v-246.9l-242-48.8ZM518.6,361.5c-3.1,1.4-6.4,2-9.5,2-9,0-17.6-5.2-21.5-13.9l-41.9-94.1-41.2,94c-3.7,8.5-12.2,14.1-21.5,14.1h-136.8c-7.7,0-14.9-3.8-19.3-10.1-4.4-6.3-5.4-14.4-2.7-21.6l54.2-144.4c3.4-9.2,12.2-15.2,22-15.2h107.7l-20.9,47h-70.5l-36.6,97.4h87.5l56.4-128.6c3.7-8.5,12.1-14,21.4-14.1h0c9.3,0,17.7,5.5,21.5,13.9l63.6,142.7c5.3,11.9,0,25.7-11.9,31Z"/>
          <polygon class="cls-3" points="174.4 562.8 578.4 562.8 376.4 574.8 174.4 562.8"/>
        </g>
      </g>
      <g id="Azules">
        <g>
          <path class="cls-2" d="M39.8,507.8c-.4,3.2-1.2,5.6-2.4,7-1.2,1.3-2.5,1.9-4.2,1.9s-3.9-1-5.3-3c-1.6-2.3-2.3-6.1-2.3-11.5s.8-9.1,2.4-11.4c1.5-2.1,3.2-3.1,5.5-3.1s2.5.5,3.5,1.5c1.1,1.2,1.9,3,2.4,5.5l.4,2.2,10.1-1.9-.3-2.1c-.8-4.9-2.5-8.7-5.3-11.4-2.9-2.8-6.5-4.2-11-4.2s-6.7,1-9.7,3c-3,2-5.2,5.1-6.6,9-1.3,3.8-2,8.2-2,13.1,0,7.7,1.6,13.8,4.9,18.1,3.4,4.5,7.9,6.7,13.4,6.7s8.3-1.7,11.4-5c3-3.2,4.8-7.5,5.5-13l.3-2.1-10.3-1.7-.3,2.3Z"/>
          <path class="cls-2" d="M86.7,518.5c-.2-1.2-.4-4.3-.4-12.7v-9.8c0-3.4-.1-5.8-.3-7.2-.4-2.3-1.1-4.3-2.2-5.9-1.1-1.7-2.8-3-5.1-4.1-2.2-1-4.9-1.5-8.3-1.5s-6.3.6-8.9,1.7c-2.7,1.2-4.8,3-6.3,5.2-1.4,2.1-2.4,4.9-2.9,8.3l-.4,2.2,10.2,1.7.4-2.1c.7-3.2,1.6-4.7,2.3-5.3.9-.8,2.5-1.2,4.7-1.2s4.1.6,5.2,1.8c.4.5,1.1,1.7,1.1,4.9s0,.2,0,.4c-2.1.7-5,1.3-8.8,1.9-2.5.4-4.4.8-5.7,1.2-1.9.6-3.5,1.6-5,2.8-1.5,1.3-2.8,3-3.7,5-.9,2-1.4,4.3-1.4,6.8,0,4.2,1.2,7.7,3.7,10.4,2.5,2.8,6.1,4.3,10.6,4.3s5.2-.6,7.5-1.6c1.3-.6,2.6-1.5,4-2.5.2.6.4,1.2.6,1.8l.6,1.4h11.2l-1.4-3.1c-.7-1.5-1.1-3-1.3-4.6ZM75.8,505.5c0,3.3-.5,5.1-.8,6-.7,1.8-1.7,3.1-3.2,4.1-1.4,1-3,1.5-4.9,1.5s-2.9-.4-3.7-1.3c-.8-.9-1.2-2-1.2-3.4s.2-1.7.6-2.5c.3-.7.8-1.1,1.4-1.5.5-.2,1.6-.7,4.6-1.2,2.8-.5,5.2-1.1,7.2-1.7Z"/>
          <path class="cls-2" d="M118.5,499.1c-1.8-1-4.8-2.1-9.2-3.6-3.7-1.3-4.8-1.7-5-1.8-.7-.3-1.1-.7-1.4-1.2-.3-.4-.4-.9-.4-1.4,0-.9.3-1.6,1.1-2.3.5-.5,1.7-1.1,4.3-1.1s3,.4,3.8,1.2c.9.9,1.5,2.2,1.7,3.9l.3,2.3,10.3-1.7-.3-2.1c-.4-3.2-1.2-5.6-2.4-7.6-1.2-2.1-3.1-3.7-5.6-4.9-2.4-1.1-5.2-1.7-8.2-1.7s-4.1.3-5.9,1c-1.9.7-3.4,1.6-4.5,2.6-1.5,1.3-2.7,3-3.5,4.9-.8,1.9-1.3,4-1.3,6.3s.5,4.8,1.5,6.8c1.1,2.1,2.7,3.9,4.7,5.1,1.9,1.1,5,2.3,9.6,3.8,4.3,1.3,5.2,2,5.4,2.1.4.4.9.9.9,2.2s-.4,2.3-1.4,3.3c-.9.9-2.4,1.4-4.5,1.4s-3.7-.5-4.8-1.7c-1.2-1.2-1.9-3-2.2-5.4l-.3-2.4-10.4,2,.3,2.1c.7,5.1,2.5,9.1,5.3,11.7,2.8,2.8,6.9,4.2,12,4.2s6-.7,8.5-2.1c2.6-1.4,4.6-3.4,5.9-6,1.3-2.5,2-5.2,2-8s-.6-5.4-1.7-7.4c-1.2-2.1-2.8-3.7-4.8-4.8Z"/>
          <path class="cls-2" d="M163.6,518.5c-.2-1.2-.4-4.3-.4-12.7v-9.8c0-3.4-.1-5.8-.3-7.2-.4-2.3-1.1-4.3-2.2-5.9-1.1-1.7-2.8-3-5.1-4.1-2.2-1-4.9-1.5-8.3-1.5s-6.3.6-8.9,1.7c-2.7,1.2-4.8,3-6.3,5.2-1.4,2.1-2.4,4.9-2.9,8.3l-.4,2.2,10.2,1.7.4-2.1c.7-3.2,1.6-4.7,2.3-5.3.9-.8,2.5-1.2,4.7-1.2s4.1.6,5.2,1.8c.4.5,1.1,1.7,1.1,4.9s0,.2,0,.4c-2.1.7-5,1.3-8.8,1.9-2.5.4-4.4.8-5.7,1.2-1.9.6-3.5,1.6-5,2.8-1.5,1.3-2.8,3-3.7,5-.9,2-1.4,4.3-1.4,6.8,0,4.2,1.2,7.7,3.7,10.4,2.5,2.8,6.1,4.3,10.6,4.3s5.2-.6,7.5-1.6c1.3-.6,2.6-1.5,4-2.5.2.6.4,1.2.6,1.8l.6,1.4h11.2l-1.4-3.1c-.7-1.5-1.1-3-1.3-4.6ZM152.8,505.5c0,3.3-.5,5.1-.8,6-.7,1.8-1.7,3.1-3.2,4.1-1.4,1-3,1.5-4.9,1.5s-2.9-.4-3.7-1.3c-.8-.9-1.2-2-1.2-3.4s.2-1.7.6-2.5c.3-.7.8-1.1,1.4-1.5.5-.2,1.6-.7,4.6-1.2,2.8-.5,5.2-1.1,7.2-1.7Z"/>
        </g>
        <path class="cls-2" d="M335.2,62.1l243.1,63.3V42.6c0-14.4-11.8-26.2-26.2-26.2H200.6c-14.4,0-26.2,11.8-26.2,26.2v82.4l160.8-62.9Z"/>
      </g>
    </g>
  </g>
</svg>